<?xml version="1.0" standalone="no"?>
<!DOCTYPE svg PUBLIC "-//W3C//DTD SVG 20010904//EN"
 "http://www.w3.org/TR/2001/REC-SVG-20010904/DTD/svg10.dtd">
<svg version="1.0" xmlns="http://www.w3.org/2000/svg"
 width="414.000000pt" height="414.000000pt" viewBox="0 0 414.000000 414.000000"
 preserveAspectRatio="xMidYMid meet">
<metadata>
Created by potrace 1.14, written by Peter Selinger 2001-2017
</metadata>
<g transform="translate(0.000000,414.000000) scale(0.100000,-0.100000)"
fill="#000000" stroke="none">
<path d="M40 2070 l0 -2070 1875 0 c1031 0 1875 2 1875 6 0 3 -50 53 -111 112
-62 59 -148 142 -193 186 -128 123 -625 606 -682 661 -28 28 -170 165 -314
305 -145 140 -298 289 -340 330 -65 63 -320 310 -630 610 -37 36 -128 125
-203 197 l-136 133 -48 -41 c-26 -23 -59 -51 -73 -63 -14 -11 -52 -43 -85 -71
-33 -27 -69 -59 -81 -70 -11 -11 -40 -36 -64 -55 -24 -19 -51 -42 -59 -50 -9
-9 -45 -40 -81 -70 -36 -30 -67 -57 -70 -60 -3 -3 -34 -30 -70 -60 -36 -30
-67 -57 -70 -60 -3 -3 -32 -28 -65 -55 -33 -28 -63 -54 -67 -60 -4 -5 -8 153
-8 353 l0 364 28 27 c15 16 92 97 172 181 80 84 163 172 185 196 22 23 103
108 180 189 77 81 160 169 185 194 25 26 115 121 200 211 171 180 165 173 370
390 80 85 155 163 167 174 13 11 23 23 23 28 0 4 -407 8 -905 8 l-905 0 0
-2070z"/>
<path d="M2688 4069 c-40 -39 -266 -261 -502 -493 -236 -231 -460 -451 -498
-489 l-69 -67 28 -26 c24 -22 129 -121 338 -319 23 -22 109 -103 190 -180 208
-198 181 -180 219 -141 32 35 315 331 401 421 28 29 131 137 230 240 99 104
198 207 220 230 158 167 379 398 425 445 30 31 125 130 210 220 85 89 167 175
183 191 15 15 27 30 27 33 0 3 -299 6 -665 6 l-664 0 -73 -71z"/>
</g>
</svg>
